<svg id="Layer_1" data-name="Layer 1" xmlns="http://www.w3.org/2000/svg" xmlns:xlink="http://www.w3.org/1999/xlink" viewBox="0 0 450 295.49">
  <defs>
    <style>
      .cls-1 {
        fill: none;
      }

      .cls-2 {
        clip-path: url(#clip-path);
      }

      .cls-3 {
        fill: #57a1bf;
      }

      .cls-4 {
        fill: #334669;
      }
    </style>
    <clipPath id="clip-path" transform="translate(-25 -27.26)">
      <rect class="cls-1" width="500" height="350"/>
    </clipPath>
  </defs>
  <g id="layer_1-2" data-name="layer 1">
    <g class="cls-2">
      <g>
        <path class="cls-3" d="M231.54,59.66a6.39,6.39,0,0,1,1,2.05c.1.89.64,2.66,1.88,2.67L233,50.17s-1.78-.89-1.88.59c-.07,1.17,0,5.65,0,7.49a2.63,2.63,0,0,0,.43,1.41" transform="translate(-25 -27.26)"/>
        <path class="cls-3" d="M267.5,61.71a6.39,6.39,0,0,1,1-2.05,2.63,2.63,0,0,0,.43-1.41c0-1.84.06-6.32,0-7.49-.1-1.48-1.88-.59-1.88-.59l-1.38,14.21c1.24,0,1.78-1.78,1.88-2.67" transform="translate(-25 -27.26)"/>
        <path class="cls-3" d="M260.05,55.94c-.81-.56-2.92-.45-3.2.07a14.44,14.44,0,0,0,3.2-.07" transform="translate(-25 -27.26)"/>
        <path class="cls-3" d="M260.38,40.57l-3.07-.13a2.07,2.07,0,0,0,3.07.13" transform="translate(-25 -27.26)"/>
        <path class="cls-3" d="M259.44,46.19c.14.1.26.27.41.28.41,0,2.16,0,2.62,0,.13,0,.24-.18.36-.27-.11-.08-.22-.22-.33-.23-.89,0-1.79-.06-2.69,0-.12,0-.24.2-.37.31" transform="translate(-25 -27.26)"/>
        <path class="cls-3" d="M262,49.19c-.93,0-1.86,0-2.79,0l-.09.2a17.31,17.31,0,0,0,1.87.53,2.78,2.78,0,0,0,1.09-.14c.11,0,.21-.24.23-.37s-.2-.21-.31-.21" transform="translate(-25 -27.26)"/>
        <path class="cls-3" d="M258.91,57h-2.5a1.88,1.88,0,0,0,2.5,0" transform="translate(-25 -27.26)"/>
        <path class="cls-3" d="M259.89,47.53c-.14,0-.28.2-.43.32.14.09.27.26.42.27.41,0,2.08,0,2.49,0,.17,0,.32-.18.48-.28-.15-.08-.3-.23-.46-.24-.83,0-1.66-.05-2.5,0" transform="translate(-25 -27.26)"/>
        <path class="cls-3" d="M257.33,39.45a.46.46,0,0,0,.28.19,9.24,9.24,0,0,0,1.17.1c.5,0,1,0,1.5-.07v-.38c-.94,0-1.87,0-2.81-.06-.05,0-.16.18-.14.22" transform="translate(-25 -27.26)"/>
        <path class="cls-3" d="M262,44.81c.11,0,.32-.18.3-.21a.84.84,0,0,0-.31-.4,3.09,3.09,0,0,0-2.87.62c1,0,1.94,0,2.88,0" transform="translate(-25 -27.26)"/>
        <path class="cls-3" d="M251.62,36.18h2c-.19-.45-1.47-.51-2,0" transform="translate(-25 -27.26)"/>
        <path class="cls-3" d="M252,35a13.86,13.86,0,0,0,1.44,0,2.59,2.59,0,0,0,.54-.11c-.1-.11-.2-.22-.31-.32H252c-.1,0-.2.11-.29.17.08.07.15.21.24.21" transform="translate(-25 -27.26)"/>
        <path class="cls-3" d="M248.09,59c-.54,0-1.08-.06-1.62-.05-.08,0-.16.21-.29.41.69,0,1.26,0,1.82,0a.31.31,0,0,0,.23-.14c0-.06-.08-.21-.14-.21" transform="translate(-25 -27.26)"/>
        <path class="cls-3" d="M256.37,37.1l2.47-.11a1.75,1.75,0,0,0-2.47.11" transform="translate(-25 -27.26)"/>
        <path class="cls-3" d="M253.64,33.88c.12,0,.22-.15.33-.23-.09-.09-.17-.24-.28-.26a1.09,1.09,0,0,0-1.26.5c.4,0,.81,0,1.21,0" transform="translate(-25 -27.26)"/>
        <path class="cls-3" d="M252,36.91a1,1,0,0,0,1.24.69,2.59,2.59,0,0,0,.68-.35L253.8,37,252,36.91" transform="translate(-25 -27.26)"/>
        <path class="cls-3" d="M253.66,57.81h-2c.55.52,1.83.46,2,0" transform="translate(-25 -27.26)"/>
        <path class="cls-3" d="M252.49,49.27h2.26c-.18-.58-1.5-.62-2.26,0" transform="translate(-25 -27.26)"/>
        <path class="cls-3" d="M252.63,41.2h2.16a1.65,1.65,0,0,0-2.16,0" transform="translate(-25 -27.26)"/>
        <path class="cls-3" d="M251.94,50.53c.8,0,1.6,0,2.41,0,.05,0,.17-.17.15-.21a.37.37,0,0,0-.26-.21h-2.58c.15.22.21.38.28.38" transform="translate(-25 -27.26)"/>
        <path class="cls-3" d="M254.51,51.69a7.69,7.69,0,0,0-2.77-.19c.27.53,1.83.63,2.77.19" transform="translate(-25 -27.26)"/>
        <path class="cls-3" d="M254.75,44.74h-2.33c.89.59,2.07.56,2.33,0" transform="translate(-25 -27.26)"/>
        <path class="cls-3" d="M254.67,42.33c-1-.45-2.66-.37-3,.2a12.25,12.25,0,0,0,3-.2" transform="translate(-25 -27.26)"/>
        <path class="cls-3" d="M254.24,43.83c.09,0,.2-.13.23-.22s-.11-.2-.17-.2c-.81,0-1.61,0-2.41.06-.06,0-.11.14-.28.37,1,0,1.81,0,2.63,0" transform="translate(-25 -27.26)"/>
        <path class="cls-3" d="M251.9,57.09l1.95-.11a1.07,1.07,0,0,0-1.95.11" transform="translate(-25 -27.26)"/>
        <path class="cls-3" d="M253.73,60.12c-.43,0-.86,0-1.28,0,0,.11,0,.21,0,.31.44.07.88.15,1.32.19.08,0,.22-.17.26-.27s-.16-.21-.25-.22" transform="translate(-25 -27.26)"/>
        <path class="cls-3" d="M253.82,59.38c-.13-.2-.21-.41-.29-.41-.54,0-1.08,0-1.62.05-.06,0-.16.15-.14.21a.31.31,0,0,0,.23.14c.57,0,1.13,0,1.82,0" transform="translate(-25 -27.26)"/>
        <path class="cls-3" d="M259,52.8a2,2,0,0,0-1.67.76l2.95-.13A1,1,0,0,0,259,52.8" transform="translate(-25 -27.26)"/>
        <path class="cls-3" d="M259.2,54.77c.37,0,.74-.08,1.11-.11v-.21c-.07-.05-.14-.13-.2-.13-.85,0-1.7,0-2.54,0-.08,0-.15.16-.23.24.1.06.19.18.29.18.52,0,1.05,0,1.57,0" transform="translate(-25 -27.26)"/>
        <path class="cls-3" d="M248.36,57.81h-2c.2.46,1.48.52,2,0" transform="translate(-25 -27.26)"/>
        <path class="cls-3" d="M254.8,52.8h-2.21a1.75,1.75,0,0,0,2.21,0" transform="translate(-25 -27.26)"/>
        <path class="cls-3" d="M259.93,38H256.8a3.3,3.3,0,0,0,3.13,0" transform="translate(-25 -27.26)"/>
        <path class="cls-3" d="M240.15,46.47c.15,0,.27-.18.41-.28-.13-.11-.25-.31-.37-.31-.9,0-1.8,0-2.69,0-.12,0-.22.15-.33.23.12.09.23.26.36.27.46,0,2.21.08,2.62,0" transform="translate(-25 -27.26)"/>
        <path class="cls-3" d="M240.12,48.12c.15,0,.28-.18.42-.27-.15-.11-.29-.32-.43-.32-.84,0-1.67,0-2.5,0-.16,0-.31.16-.46.25.16.09.31.25.48.27.41,0,2.08.08,2.49,0" transform="translate(-25 -27.26)"/>
        <path class="cls-3" d="M238,49.19c-.11,0-.32.15-.31.21s.12.34.23.37a2.78,2.78,0,0,0,1.09.14,17.31,17.31,0,0,0,1.87-.53l-.09-.2c-.93,0-1.86,0-2.79,0" transform="translate(-25 -27.26)"/>
        <path class="cls-3" d="M241.16,37l2.47.11a1.75,1.75,0,0,0-2.47-.11" transform="translate(-25 -27.26)"/>
        <path class="cls-3" d="M246.15,57l1.95.11a1.07,1.07,0,0,0-1.95-.11" transform="translate(-25 -27.26)"/>
        <path class="cls-3" d="M238,44.2a.84.84,0,0,0-.31.4s.19.21.3.21c.94,0,1.87,0,2.88,0A3.09,3.09,0,0,0,238,44.2" transform="translate(-25 -27.26)"/>
        <path class="cls-3" d="M243.2,38h-3.13a3.3,3.3,0,0,0,3.13,0" transform="translate(-25 -27.26)"/>
        <path class="cls-3" d="M242.39,39.64a.54.54,0,0,0,.28-.19s-.09-.22-.14-.22c-.94,0-1.87,0-2.81.06v.38c.5,0,1,.08,1.5.07a9.24,9.24,0,0,0,1.17-.1" transform="translate(-25 -27.26)"/>
        <path class="cls-3" d="M259,152.83a10.41,10.41,0,1,0,8,3.69,10.4,10.4,0,0,0-8-3.69" transform="translate(-25 -27.26)"/>
        <path class="cls-3" d="M277.5,167.43a19.47,19.47,0,0,1-.84,2.79,35.12,35.12,0,0,1-3.58-.57,15.35,15.35,0,0,1-4.09,5.43c-.19.16-.38.3-.57.44.5,1.09,1,2.2,1.36,3.36a20.55,20.55,0,0,1-5.22,2.53c-.65-1-1.25-2.08-1.78-3.14a15.74,15.74,0,0,1-3.76.47q-.66,0-1.32-.06a16.22,16.22,0,0,1-2.43-.41,31.36,31.36,0,0,1-1.77,3.15l-1.38-.46-1.33-.59a12,12,0,0,1-1.28-.68,11.26,11.26,0,0,1-1.24-.78c.4-1.15.84-2.26,1.34-3.35a15.26,15.26,0,0,1-2.45-2.31,15.54,15.54,0,0,1-2.24-3.54,33,33,0,0,1-3.56.57l-.5-1.37-.37-1.4a14.32,14.32,0,0,1-.26-1.43,8.81,8.81,0,0,1-.16-1.45,35.7,35.7,0,0,1,3.44-1,15.05,15.05,0,0,1,.05-1.64,15.54,15.54,0,0,1,1.6-5.68l-.13-.1c-.87-.73-1.71-1.5-2.53-2.32a21.71,21.71,0,0,1,1.62-2.42,20.94,20.94,0,0,1,2-2.11,31.71,31.71,0,0,1,3,2,15.45,15.45,0,0,1,6.75-3.27v-.17q0-1.69.24-3.42a18.81,18.81,0,0,1,2.9-.24l1.45.05c.48,0,1,.12,1.44.18a33.32,33.32,0,0,1,.25,3.6,15.44,15.44,0,0,1,6.76,3.24c.95-.73,1.93-1.41,3-2.06a9.82,9.82,0,0,1,1,1,11.12,11.12,0,0,1,1,1.1l.87,1.15.77,1.24a34.3,34.3,0,0,1-2.66,2.45,15.29,15.29,0,0,1,1.67,7.3c1.16.29,2.31.63,3.47,1a17.45,17.45,0,0,1-.43,2.87m-28.44,19a15.37,15.37,0,0,1-.67,2,25.6,25.6,0,0,1-2.77-.55,10.71,10.71,0,0,1-2.06,2.88,11,11,0,0,1-1.28,1.09,24.69,24.69,0,0,1,1,2.64l-.9.54-.93.45a12.88,12.88,0,0,1-2,.71,25.82,25.82,0,0,1-1.3-2.5,10.36,10.36,0,0,1-1.48.23l-.84,0a10.79,10.79,0,0,1-2.86-.4,26,26,0,0,1-1.45,2.43l-1-.36-.94-.46a12.37,12.37,0,0,1-1.77-1.09,24.74,24.74,0,0,1,1.14-2.57,11,11,0,0,1-3.13-4.14c-.92.17-1.85.3-2.79.38a14,14,0,0,1-.57-2,14.59,14.59,0,0,1-.24-2.07,25.27,25.27,0,0,1,2.72-.71,10.8,10.8,0,0,1,1.29-5,26.62,26.62,0,0,1-2-1.94,13.37,13.37,0,0,1,2.68-3.18,24.27,24.27,0,0,1,2.27,1.69,10.76,10.76,0,0,1,4.72-2.13,24.63,24.63,0,0,1,.25-2.81,14.42,14.42,0,0,1,2.08-.1l1,.06,1,.15a24.09,24.09,0,0,1,.1,2.82A10.83,10.83,0,0,1,243,174.8a27.18,27.18,0,0,1,2.34-1.56,12,12,0,0,1,1.38,1.56,15.35,15.35,0,0,1,1.13,1.75,26.34,26.34,0,0,1-2.15,1.83,10.89,10.89,0,0,1,1,4.63c0,.15,0,.31,0,.47a27.16,27.16,0,0,1,2.7.85,15.87,15.87,0,0,1-.37,2.06M238.15,54.22c-.32-1.63,1.19-2.91,3-2.55a19.44,19.44,0,0,1,2.25.68c.56.2.87,0,.91-.47a7.78,7.78,0,0,0,0-1.6c-.11-.76-.51-.94-1.29-.65s-1.8.76-2.73,1a3.28,3.28,0,0,1-3.63-.64,4.25,4.25,0,0,1-1.09-2.87h0v-.09h0a4.91,4.91,0,0,1,.79-2.72A2.71,2.71,0,0,1,239,43.1a7.27,7.27,0,0,1,1.67.33c.86.29,1.69.66,2.54,1,.5.2.94,0,1-.41a10.93,10.93,0,0,0,.08-2.06c0-.38-.35-.48-.73-.36l-1.73.58a3,3,0,0,1-2.92-.38,2.07,2.07,0,0,1-.68-2.25,6.94,6.94,0,0,1,1.89-3.3,2.94,2.94,0,0,1,3.75-.42c.31.19.61.39.91.59s.48.1.61-.18a2.29,2.29,0,0,0-.54-2.1c-.06.11-.1.28-.19.31a1.24,1.24,0,0,1-.76.1c-.16-.09-.22-.43-.2-.65a1.14,1.14,0,0,1,.33-.58,3,3,0,0,1,2.85-1.06,2.76,2.76,0,0,1,2.36,1.6,4.71,4.71,0,0,1,.08,3.52,1.87,1.87,0,0,1-2.11,1.28,8.07,8.07,0,0,1-2-.65c-.3-.12-.57-.29-.8,0a3.35,3.35,0,0,0-.62,2.29l1.5-.49c1.92-.63,3.84.28,4.14,2.07a8.12,8.12,0,0,1-.07,2.6,2.17,2.17,0,0,1-2.15,1.8,9.27,9.27,0,0,1-2.41-.18,10.68,10.68,0,0,1-2-.68c-.54-.22-.85,0-1,.43s-.18.81-.27,1.23a1.67,1.67,0,0,1,.06.24c.22,1.41.42,1.51,1.83.94l.36-.15a7.06,7.06,0,0,1,3.22-.49,2.41,2.41,0,0,1,2.24,1.59,11.77,11.77,0,0,1,.13,2.84,2.34,2.34,0,0,1-1.93,2.12,3.65,3.65,0,0,1-2.33-.08c-.43-.15-.88-.28-1.53-.48.17.7.25,1.22.43,1.72.3.87.55.93,1.39.46a4,4,0,0,1,1-.41,2.19,2.19,0,0,1,2.94,1.49,4.86,4.86,0,0,1-.09,3.06,2.78,2.78,0,0,1-2.5,1.79,2.86,2.86,0,0,1-2.91-1.27c-.17-.27-.24-.81-.06-1,.35-.37.73,0,1,.24,0,0,.08,0,.19,0a2.71,2.71,0,0,0,.32-1.93c-.07-.35-.3-.48-.66-.22s-.6.4-.92.59a2.75,2.75,0,0,1-3.08,0,6,6,0,0,1-2.55-4m12.63-20.36a2.76,2.76,0,0,1,2.37-1.6A3,3,0,0,1,256,33.32a1.2,1.2,0,0,1,.32.58c0,.22,0,.56-.2.65s-.51,0-.76-.1c-.09,0-.13-.2-.19-.31a2.29,2.29,0,0,0-.54,2.1c.13.28.31.37.61.18s.6-.4.91-.59a2.94,2.94,0,0,1,3.75.42,6.94,6.94,0,0,1,1.89,3.3,2.07,2.07,0,0,1-.68,2.25,2.94,2.94,0,0,1-2.91.38l-1.74-.58c-.38-.12-.71,0-.72.36a10.15,10.15,0,0,0,.07,2.06c.08.46.52.61,1,.41.85-.34,1.68-.71,2.55-1A7.08,7.08,0,0,1,261,43.1a2.71,2.71,0,0,1,2.65,1.26,4.91,4.91,0,0,1,.79,2.72h0v.09h0A4.29,4.29,0,0,1,263.4,50a3.3,3.3,0,0,1-3.64.64c-.93-.29-1.82-.7-2.73-1s-1.18-.11-1.29.65a7.78,7.78,0,0,0,0,1.6c0,.52.34.67.9.47a19.44,19.44,0,0,1,2.25-.68c1.79-.36,3.3.92,3,2.55a6,6,0,0,1-2.55,4,2.75,2.75,0,0,1-3.08,0c-.32-.19-.62-.39-.92-.59s-.59-.13-.66.22a2.71,2.71,0,0,0,.32,1.93c.11,0,.17,0,.19,0,.31-.28.69-.61,1-.24.17.18.1.72-.07,1a2.86,2.86,0,0,1-2.91,1.27,2.78,2.78,0,0,1-2.5-1.79,4.86,4.86,0,0,1-.09-3.06,2.19,2.19,0,0,1,2.94-1.49,4,4,0,0,1,1,.41c.84.47,1.09.41,1.39-.46.18-.5.26-1,.43-1.72-.65.2-1.1.33-1.53.48a3.65,3.65,0,0,1-2.33.08,2.34,2.34,0,0,1-1.93-2.12,11.77,11.77,0,0,1,.13-2.84A2.41,2.41,0,0,1,253,47.65a7.06,7.06,0,0,1,3.22.49l.36.15c1.41.57,1.61.47,1.83-.94a1.67,1.67,0,0,1,.06-.24c-.09-.42-.15-.84-.27-1.23s-.45-.65-1-.43a10.68,10.68,0,0,1-2,.68,9.27,9.27,0,0,1-2.41.18,2.17,2.17,0,0,1-2.15-1.8,8.12,8.12,0,0,1-.07-2.6c.3-1.79,2.22-2.7,4.14-2.07l1.5.49a3.35,3.35,0,0,0-.62-2.29c-.23-.32-.49-.15-.8,0a8.07,8.07,0,0,1-2,.65,1.87,1.87,0,0,1-2.11-1.28,4.71,4.71,0,0,1,.08-3.52m176,96.67-1.43-2.38a4,4,0,0,0-.56-.72l-8-8-.16-.12L403.87,112l-.18-.08c-1.12-.3-11.66-3.17-28.35-9.25-17.66-6.42-27.18-5.8-29.27-4.81s-7.7.22-8.2.15l-.07,0c-14.72-4.8-24.79-2.77-25.19-2.51S294.28,88.42,287.45,88c-.22,0-.44,0-.66,0A28.55,28.55,0,0,1,274,85.16c-4-2-8-3.93-8.25-4h0a16.69,16.69,0,0,1-1.92-.85c-2.64-1.45-2-6.21-1.83-7.48a.76.76,0,0,1,.31-.49c1.72-1.3,2.63-4.4,2.78-5l0-.18.39-9.74v-.08l1.11-7.6V42.5c-1.6-14.23-12.72-15.24-15.79-15.24h-1.56c-3.07,0-14.19,1-15.79,15.24v7.23l1.11,7.6a.19.19,0,0,0,0,.08l.39,9.74a1.1,1.1,0,0,0,0,.18c.15.56,1.06,3.66,2.78,5a.76.76,0,0,1,.31.49c.22,1.27.81,6-1.83,7.48a16.69,16.69,0,0,1-1.92.85h0c-.23.11-4.24,2-8.25,4A28.55,28.55,0,0,1,213.21,88c-.22,0-.44,0-.66,0-6.83.44-24.76,7.78-25.16,7.53S176.92,93.22,162.2,98l-.07,0c-.5.07-6.2.8-8.2-.15s-11.6-1.61-29.27,4.81c-16.69,6.08-27.23,9-28.34,9.25l-.19.08-12.73,7.3-.17.12-8,8a3.61,3.61,0,0,0-.57.72l-1.43,2.38a.8.8,0,0,0,.12,1c.31.31,2.78-.49,3.09-.8l4.9-5.12.14-.11,8-4.69a1.11,1.11,0,0,1,.3-.08l5.13-.36a.78.78,0,0,1,.54,1.4l-3.77,3a.8.8,0,0,0-.12,1.12l0,0a2.58,2.58,0,0,0,3.23.66c3.14-1.68,9.23-4.9,10.59-5.29,1.85-.53,3.26-6.34,12.53-5.47s30.31,3,34.17-.9,31.87-1.23,33.22-1.11h.1c.82-.07,15.37,1.39,15.45,1.52a18.81,18.81,0,0,1,6.82,3.74,20.23,20.23,0,0,1,6.55,11.54c.64,3.35,1.48,7.64,2,10.47,1.26,6.49,2.42,12.63,2.42,12.63s2.76,14,.69,20.13a46.55,46.55,0,0,0-2.59,12.45,24.26,24.26,0,0,1-.89,5.22l-.06.2c-3.1,10.76,16.78,19.91,28,19.91h15.89c11.19,0,27.42-9.15,24.32-19.91l-.06-.2a24.26,24.26,0,0,1-.89-5.22,46.55,46.55,0,0,0-2.59-12.45c-2.07-6.12.69-20.13.69-20.13s1.16-6.14,2.42-12.63c.56-2.83,1.39-7.12,2-10.47A20.23,20.23,0,0,1,292.24,119a18.81,18.81,0,0,1,6.82-3.74c.08-.13,14.63-1.59,15.45-1.52h.1c1.35-.12,29.46-2.65,33.22,1.11s24.9,1.76,34.17.9,10.68,4.94,12.53,5.47c1.36.39,7.45,3.61,10.59,5.29a2.58,2.58,0,0,0,3.23-.66l0,0a.8.8,0,0,0-.12-1.12l-3.77-3a.78.78,0,0,1,.54-1.4l5.13.36a1.11,1.11,0,0,1,.3.08l8,4.69.14.11,4.9,5.12c.31.31,2.78,1.11,3.09.8a.8.8,0,0,0,.12-1" transform="translate(-25 -27.26)"/>
        <path class="cls-3" d="M235.87,175.3c-.19,0-.39,0-.59,0a7.78,7.78,0,1,0,.59,0" transform="translate(-25 -27.26)"/>
        <path class="cls-3" d="M242.37,54.79c.1,0,.19-.12.29-.18-.08-.08-.15-.23-.23-.24-.84,0-1.69,0-2.54,0-.06,0-.13.08-.2.13v.21c.37,0,.74.09,1.11.11s1,0,1.57,0" transform="translate(-25 -27.26)"/>
        <path class="cls-3" d="M243.59,57h-2.5a1.88,1.88,0,0,0,2.5,0" transform="translate(-25 -27.26)"/>
        <path class="cls-3" d="M240,55.94a14.44,14.44,0,0,0,3.2.07c-.28-.52-2.39-.63-3.2-.07" transform="translate(-25 -27.26)"/>
        <path class="cls-3" d="M241,52.8a1,1,0,0,0-1.28.63l3,.13A2,2,0,0,0,241,52.8" transform="translate(-25 -27.26)"/>
        <path class="cls-3" d="M242.69,40.44l-3.07.13a2.07,2.07,0,0,0,3.07-.13" transform="translate(-25 -27.26)"/>
        <path class="cls-3" d="M247.57,33.89a1.09,1.09,0,0,0-1.26-.5c-.11,0-.19.17-.28.26.11.08.21.22.33.23.4,0,.81,0,1.21,0" transform="translate(-25 -27.26)"/>
        <path class="cls-3" d="M245.25,49.27h2.26c-.76-.62-2.08-.58-2.26,0" transform="translate(-25 -27.26)"/>
        <path class="cls-3" d="M247.41,52.8H245.2a1.75,1.75,0,0,0,2.21,0" transform="translate(-25 -27.26)"/>
        <path class="cls-3" d="M247.58,44.74h-2.33c.26.56,1.44.59,2.33,0" transform="translate(-25 -27.26)"/>
        <path class="cls-3" d="M245.49,51.69c.94.44,2.5.34,2.77-.19a7.69,7.69,0,0,0-2.77.19" transform="translate(-25 -27.26)"/>
        <path class="cls-3" d="M246.28,60.61c.44,0,.88-.12,1.32-.19,0-.1,0-.2,0-.31-.42,0-.85,0-1.28,0-.09,0-.26.17-.25.22s.18.27.26.27" transform="translate(-25 -27.26)"/>
        <path class="cls-3" d="M245.76,50.16a.39.39,0,0,0-.26.21s.1.21.16.21c.8,0,1.6,0,2.4,0,.07,0,.13-.16.28-.38h-2.58" transform="translate(-25 -27.26)"/>
        <path class="cls-3" d="M246.37,36.18h2c-.54-.51-1.82-.45-2,0" transform="translate(-25 -27.26)"/>
        <path class="cls-3" d="M248.11,43.47c-.8,0-1.6,0-2.41-.06-.06,0-.19.15-.17.2s.14.22.23.22c.82,0,1.64,0,2.63,0-.17-.23-.22-.36-.28-.37" transform="translate(-25 -27.26)"/>
        <path class="cls-3" d="M246.05,34.93a2.08,2.08,0,0,0,.55.12A13.76,13.76,0,0,0,248,35c.09,0,.16-.14.24-.21-.09-.06-.19-.16-.29-.17h-1.62l-.31.31" transform="translate(-25 -27.26)"/>
        <path class="cls-3" d="M246.11,37.25a2.59,2.59,0,0,0,.68.35,1,1,0,0,0,1.24-.69L246.2,37l-.09.25" transform="translate(-25 -27.26)"/>
        <path class="cls-3" d="M245.33,42.33a12.25,12.25,0,0,0,3,.2c-.34-.57-2-.65-3-.2" transform="translate(-25 -27.26)"/>
        <path class="cls-3" d="M245.21,41.2h2.16a1.65,1.65,0,0,0-2.16,0" transform="translate(-25 -27.26)"/>
        <path class="cls-4" d="M251.63,221.72c16.52-6.17,27.85-13.89,34.63-23.58s7.58-19.61,7.58-26.2-.78-16.5-7.58-26.21-18.11-17.4-34.63-23.58c-17.25-6.45-25.79-11.15-30.44-16.76-4.16-5-5.64-11.35-5.64-24.2a4.72,4.72,0,0,0-9.43,0c0,12.85,1.31,22.38,7.82,30.23,5.8,7,15.45,12.47,34.39,19.56a109.74,109.74,0,0,1,10.21,4.38c-.35,1.47-.7,2.93-1.08,4.38.65.31,1.24.68,1.86,1l1.85,1c1-1.12,2.07-2.2,3.12-3.27a61.91,61.91,0,0,1,5.44,3.68c-.62,1.38-1.25,2.75-1.91,4.09l1.55,1.34.78.67c.26.22.48.48.72.71,1.25-.83,2.55-1.63,3.85-2.41a35.58,35.58,0,0,1,4.2,5.15c-1,1.11-2.07,2.2-3.17,3.24l1,1.72c.33.57.56,1.19.85,1.78,1-.21,2-.4,3.07-.57l1.4-.2a33.36,33.36,0,0,1,1.77,6.45c-1.38.6-2.76,1.16-4.19,1.69.08.67.18,1.33.24,2l.13,2.05q2.2.39,4.41.87c0,.39,0,.78,0,1.17a49.8,49.8,0,0,1-.27,5.42c-1.5.19-3,.35-4.5.45-.06.68-.21,1.33-.33,2-.07.33-.12.66-.2,1l-.26,1c1.33.68,2.66,1.43,4,2.2a31.21,31.21,0,0,1-2.62,6.15c-1.47-.42-2.92-.87-4.34-1.37a15.26,15.26,0,0,1-1.1,1.65,16.68,16.68,0,0,1-1.2,1.6c.95,1.17,1.86,2.38,2.75,3.62a42.43,42.43,0,0,1-4.72,4.63c-1.22-.9-2.43-1.82-3.6-2.77a18.28,18.28,0,0,1-1.64,1.26l-1.69,1.21c.58,1.42,1.1,2.82,1.61,4.23q-2.58,1.68-5.65,3.31c-1-1.14-2-2.28-2.94-3.44-.61.35-1.27.64-1.91.94l-1.92.9c.31,1.48.6,3,.89,4.44-2,.89-4.13,1.75-6.4,2.6-18.94,7.09-28.59,12.57-34.39,19.57-6.51,7.84-7.82,17.37-7.82,30.22a4.72,4.72,0,0,0,9.43,0c0-12.85,1.48-19.18,5.64-24.2,4.65-5.61,13.19-10.31,30.44-16.76" transform="translate(-25 -27.26)"/>
        <path class="cls-4" d="M264,217.85A120,120,0,0,1,252.1,223l-.23.08c14.9,5.78,22.58,10.2,26.9,15.41,4.17,5,5.64,11.35,5.64,24.2a4.72,4.72,0,1,0,9.43,0c0-12.85-1.31-22.38-7.81-30.22-4.39-5.29-11-9.71-22.08-14.61" transform="translate(-25 -27.26)"/>
        <path class="cls-4" d="M264,126c11.11-4.9,17.69-9.32,22.08-14.6,6.5-7.84,7.81-17.38,7.81-30.23a4.72,4.72,0,0,0-9.43,0c0,12.85-1.47,19.19-5.64,24.2-4.32,5.21-12,9.64-26.9,15.41l.23.09A118.72,118.72,0,0,1,264,126" transform="translate(-25 -27.26)"/>
        <path class="cls-4" d="M247.86,132.24c-4.41-1.65-8.31-3.21-11.79-4.73-10,5.14-17.42,11.15-22.37,18.22-6.79,9.71-7.58,19.61-7.58,26.21s.79,16.49,7.58,26.2c5,7.07,12.33,13.08,22.37,18.22,3.48-1.52,7.38-3.08,11.79-4.73l.28-.11c-1-.4-2-.82-2.9-1.23.28-1.49.57-3,.89-4.44l-1.93-.9c-.64-.3-1.29-.59-1.9-.94-1,1.16-2,2.3-2.94,3.43-2.05-1.08-3.93-2.19-5.65-3.31.51-1.41,1-2.81,1.6-4.22l-1.68-1.21a18.28,18.28,0,0,1-1.64-1.26c-1.17.95-2.38,1.86-3.6,2.76a41.57,41.57,0,0,1-4.72-4.63c.89-1.23,1.8-2.45,2.74-3.61a18.53,18.53,0,0,1-1.2-1.6,15.18,15.18,0,0,1-1.09-1.65c-1.42.5-2.87.95-4.34,1.36a31.53,31.53,0,0,1-2.63-6.14c1.31-.77,2.64-1.52,4-2.2l-.26-1c-.09-.32-.13-.65-.2-1-.12-.65-.28-1.3-.34-2-1.49-.1-3-.26-4.49-.45a49.83,49.83,0,0,1-.28-5.42c0-.39,0-.78,0-1.17,1.47-.32,2.95-.61,4.42-.87l.13-2.05c.06-.68.16-1.34.23-2-1.42-.53-2.8-1.09-4.18-1.69a32.85,32.85,0,0,1,1.77-6.45l1.39.2c1,.17,2.06.36,3.08.57.28-.59.52-1.21.84-1.78l1-1.72c-1.1-1-2.14-2.13-3.17-3.23a35.76,35.76,0,0,1,4.2-5.16c1.31.78,2.6,1.58,3.85,2.41.25-.23.47-.49.73-.71l.77-.67,1.56-1.34c-.67-1.34-1.3-2.7-1.91-4.08a61.91,61.91,0,0,1,5.44-3.68c1,1.07,2.08,2.14,3.11,3.26l1.85-1c.62-.33,1.21-.7,1.86-1-.37-1.45-.72-2.91-1.07-4.37,2.07-1,4.3-2,6.71-3l-.28-.11" transform="translate(-25 -27.26)"/>
        <path class="cls-4" d="M275.75,255H224.21a4.72,4.72,0,0,0,0,9.43h51.54a4.72,4.72,0,0,0,0-9.43" transform="translate(-25 -27.26)"/>
        <path class="cls-4" d="M229.85,246.14a4.71,4.71,0,0,0,4.71,4.71H265.4a4.71,4.71,0,1,0,0-9.42H234.56a4.71,4.71,0,0,0-4.71,4.71" transform="translate(-25 -27.26)"/>
        <path class="cls-4" d="M255.05,227.91H244.91a4.71,4.71,0,0,0,0,9.42h10.14a4.71,4.71,0,1,0,0-9.42" transform="translate(-25 -27.26)"/>
        <path class="cls-4" d="M319.91,210.28A7.13,7.13,0,0,0,315.2,208l.72-33.26,38.83.58a7.08,7.08,0,0,0,1.47,4.11Zm-3.66-50.52L355,173.13a7.27,7.27,0,0,0-.26,1.56l-38.83-.58Zm1-44.27a9.52,9.52,0,0,0,4.74-1.35l35.76,55.21a7.11,7.11,0,0,0-2.47,3.15l-39-13.45ZM361.86,168a7.1,7.1,0,0,0-3.58,1l-35.76-55.21a9.49,9.49,0,1,0-14.91-8.28l-13.76-.23v.67l13.75.24a9.51,9.51,0,0,0,.53,2.94l-35.39,13.74.25.63,35.37-13.74a9.44,9.44,0,0,0,1.4,2.3L282.3,136.38l.44.5,27.47-24.34a9.45,9.45,0,0,0,6.33,2.92l-1,43.36-21-7.24-.22.63,21.2,7.32-.32,14.57-17-.25v.67l17,.25L314.52,208a7.05,7.05,0,0,0-5.46,2.78l-18.21-12.63-.39.55,18.21,12.63a7.12,7.12,0,1,0,13.16,3.78,7.05,7.05,0,0,0-1.49-4.34L356.66,180a7.12,7.12,0,1,0,5.2-12" transform="translate(-25 -27.26)"/>
        <path class="cls-4" d="M155.42,178.24a10.21,10.21,0,0,0,2.14-5.81l26.38.39,10.39,33.64a6.59,6.59,0,0,0-2.65,1.77Zm4.48-64.44a13.5,13.5,0,0,0,2.31.22,12.65,12.65,0,0,0,3.44-.49l14,45.46-22.92,8.9a10.31,10.31,0,0,0-7-6Zm23.83,58.34-26.15-.39a10.49,10.49,0,0,0-.58-3.23l22.87-8.88Zm28,27.68-.45-.51-9.87,8.75a6.72,6.72,0,0,0-4.8-2,6.44,6.44,0,0,0-1.65.22l-10.32-33.43,18.69.28v-.68l-18.91-.28-3.94-12.76,27-10.48-.25-.63L180.3,158.75l-14-45.41a12.78,12.78,0,0,0,5.35-3.52l38.65,33.3.44-.51-38.64-33.29a12.22,12.22,0,0,0,1.73-2.8L227,129l.26-.62L174.09,105.9a12.93,12.93,0,0,0,.82-3.47l29.9,2,0-.67-29.9-2c0-.17,0-.34,0-.51a12.77,12.77,0,1,0-15.73,12.41l-10.17,48.12a10.57,10.57,0,0,0-1.8-.16A10.32,10.32,0,1,0,155,178.76l36.26,30a6.65,6.65,0,0,0-1.34,4,6.72,6.72,0,1,0,13.43,0,6.6,6.6,0,0,0-1.48-4.19Z" transform="translate(-25 -27.26)"/>
        <path class="cls-4" d="M157.59,207.1a2.61,2.61,0,1,0,2.6,2.61,2.6,2.6,0,0,0-2.6-2.61" transform="translate(-25 -27.26)"/>
        <path class="cls-4" d="M187.3,140.56a2.61,2.61,0,1,0,2.61-2.6,2.61,2.61,0,0,0-2.61,2.6" transform="translate(-25 -27.26)"/>
        <path class="cls-4" d="M306.45,166.12a2.61,2.61,0,1,0-2.61,2.6,2.61,2.61,0,0,0,2.61-2.6" transform="translate(-25 -27.26)"/>
        <path class="cls-4" d="M352.13,207.1a2.61,2.61,0,1,0,2.6,2.61,2.6,2.6,0,0,0-2.6-2.61" transform="translate(-25 -27.26)"/>
        <path class="cls-4" d="M49.69,298c-1,.73-3.15,1.1-6.4,1.1H32.38V287.31H43.29c4.07,0,5.64.44,6.24.81,1.55.94,2.3,2.61,2.3,5.1a5.57,5.57,0,0,1-2.14,4.8M59,319.87c-.08-.47-.2-1.92-.35-4.33-.27-3.86-.89-6.58-1.92-8.3a10.93,10.93,0,0,0-4.57-3.89,12.62,12.62,0,0,0,3.91-2.14,10.57,10.57,0,0,0,3.51-8.43,12,12,0,0,0-1.22-5.36,10.48,10.48,0,0,0-3.41-4c-2.2-1.5-5.89-2.22-11.29-2.22H25v40.94h7.38V305.22h5.88c4.62,0,7.89.77,9.74,2.3s3,4.34,3.33,8.42c.24,2.61.39,4.09.45,4.51a4.15,4.15,0,0,0,.49,1.45l.14.26h7.7l-.44-.75a5.1,5.1,0,0,1-.63-1.54" transform="translate(-25 -27.26)"/>
        <path class="cls-4" d="M72.05,283.32a16.14,16.14,0,0,0-6.68,7.21c-1.55,3-2.33,7.06-2.33,11.93a26.53,26.53,0,0,0,1.43,9.31c1.78,4.7,4.65,7.81,8.52,9.22a25.13,25.13,0,0,0,8.34,1.17H95v-6.1H82.5a14.84,14.84,0,0,1-6-1,8.13,8.13,0,0,1-3.52-3.42,14.38,14.38,0,0,1-1.84-7.07H95v-6.09H71.13a19,19,0,0,1,1.11-5.57A9.09,9.09,0,0,1,75,289.19a7.74,7.74,0,0,1,3-1.45,21,21,0,0,1,4.87-.43H95v-6.09H83.2c-4.72,0-8.47.7-11.15,2.1" transform="translate(-25 -27.26)"/>
        <path class="cls-3" d="M115.76,305a37.46,37.46,0,0,1-.39,6.41,5.2,5.2,0,0,1-1.3,2.82,5.67,5.67,0,0,1-2.89,1.38,31.53,31.53,0,0,1-5.89.41H97.06v6.1h8.23a45,45,0,0,0,7.91-.51,13.28,13.28,0,0,0,4.9-2,10.57,10.57,0,0,0,4.32-5.84,36.73,36.73,0,0,0,.72-8.76V281.22h-7.38Z" transform="translate(-25 -27.26)"/>
        <path class="cls-3" d="M137,283.32a16.09,16.09,0,0,0-6.68,7.21c-1.55,3-2.34,7.06-2.34,11.93a26.24,26.24,0,0,0,1.44,9.31c1.78,4.7,4.65,7.81,8.52,9.22a25,25,0,0,0,8.33,1.17h13.64v-6.1H147.39a14.87,14.87,0,0,1-6-1,8.18,8.18,0,0,1-3.52-3.42,14.48,14.48,0,0,1-1.84-7.07h23.88v-6.09H136a18.93,18.93,0,0,1,1.12-5.57,9,9,0,0,1,2.72-3.72,7.79,7.79,0,0,1,3-1.45,20.88,20.88,0,0,1,4.86-.43h12.15v-6.09H148.09c-4.71,0-8.47.7-11.14,2.1" transform="translate(-25 -27.26)"/>
        <path class="cls-3" d="M191.9,312l-19.59-30.73h-8.38v40.94h7.2V291.5l19.8,30.66h8.17V281.22h-7.2Z" transform="translate(-25 -27.26)"/>
        <path class="cls-3" d="M213.41,283.32a16.09,16.09,0,0,0-6.68,7.21c-1.55,3-2.34,7.06-2.34,11.93a26.24,26.24,0,0,0,1.44,9.31c1.78,4.7,4.65,7.81,8.52,9.22a25,25,0,0,0,8.33,1.17h13.64v-6.1H223.85a14.87,14.87,0,0,1-6-1,8.18,8.18,0,0,1-3.52-3.42,14.48,14.48,0,0,1-1.84-7.07h23.88v-6.09H212.48a18.93,18.93,0,0,1,1.12-5.57,9,9,0,0,1,2.72-3.72,7.79,7.79,0,0,1,3-1.45,20.88,20.88,0,0,1,4.86-.43h12.15v-6.09H224.55c-4.71,0-8.47.7-11.14,2.1" transform="translate(-25 -27.26)"/>
        <path class="cls-3" d="M248.78,287.31h10.9c4.07,0,5.64.44,6.24.81,1.55.94,2.3,2.61,2.3,5.1a5.59,5.59,0,0,1-2.13,4.8c-1,.73-3.16,1.1-6.41,1.1h-10.9Zm26.66,32.56c-.09-.47-.21-1.92-.36-4.33-.26-3.86-.89-6.58-1.92-8.3a10.87,10.87,0,0,0-4.57-3.89,12.51,12.51,0,0,0,3.91-2.14,10.57,10.57,0,0,0,3.51-8.43,12,12,0,0,0-1.22-5.36,10.31,10.31,0,0,0-3.41-4c-2.2-1.5-5.89-2.22-11.29-2.22h-18.7v40.94h7.39V305.22h5.87c4.62,0,7.9.77,9.75,2.3s3,4.34,3.33,8.42c.23,2.61.38,4.09.44,4.51a4.37,4.37,0,0,0,.49,1.45l.15.26h7.69l-.43-.75a4.71,4.71,0,0,1-.63-1.54" transform="translate(-25 -27.26)"/>
        <path class="cls-3" d="M305.37,305.62h-13.5l6.92-17.72Zm-1.93-24.4h-9.07l-16.95,40.94h7.88l4.24-10.45h18.25l4.07,10.45h7.87l-16.16-40.63Z" transform="translate(-25 -27.26)"/>
        <path class="cls-3" d="M351.36,300.13a10.47,10.47,0,0,0-4.36-1.79,47.17,47.17,0,0,0-7.73-.47h-2.4c-3,0-5.17-.41-6.42-1.21a4.2,4.2,0,0,1-1.77-3.85c0-2.1.67-3.55,2.05-4.43a6.16,6.16,0,0,1,2.23-.83,23.91,23.91,0,0,1,3.91-.24h16.94v-6.09H336.87a25.63,25.63,0,0,0-8.77,1.19,10.64,10.64,0,0,0-5.17,4.24,12.5,12.5,0,0,0-2,7.07c0,4,1.51,7,4.5,8.93,2.09,1.34,5.41,2,10.16,2h3.34a23.33,23.33,0,0,1,6,.48c2.07.67,3.07,2.4,3.07,5.28,0,2.27-.78,3.82-2.38,4.74-1.07.62-2.9.93-5.45.93H322.32v6.1h16.95a48.42,48.42,0,0,0,6.58-.33,13,13,0,0,0,4.06-1.25c3.85-2,5.8-5.49,5.8-10.39a14.7,14.7,0,0,0-1.13-5.82,10.51,10.51,0,0,0-3.22-4.24" transform="translate(-25 -27.26)"/>
        <path class="cls-3" d="M388,281.22l-11.34,18.42L365,281.22h-8.62l16.41,24.53v16.41h7.38V305.75l16.45-24.53Z" transform="translate(-25 -27.26)"/>
        <path class="cls-3" d="M425.27,311.12c-1.72,3.72-5.16,5.53-10.52,5.53-4.66,0-7.95-1.39-9.79-4.14-1.6-2.38-2.4-6-2.4-10.87,0-4,.55-7.19,1.64-9.43,1.8-3.69,5.28-5.48,10.64-5.48,4.61,0,7.89,1.55,9.76,4.5,1.38,2.21,2.08,5.82,2.08,10.74,0,4-.47,7.1-1.41,9.15M414.9,280.63h0a26,26,0,0,0-9.13,1.56,16.16,16.16,0,0,0-6.45,4.58,17.63,17.63,0,0,0-3.34,6.49,29.5,29.5,0,0,0-1.21,8.5,31.24,31.24,0,0,0,1.15,8.49,18,18,0,0,0,3.09,6.48c3.21,4,8.36,6,15.31,6,6.07,0,11-1.61,14.53-4.81,3.74-3.36,5.64-8.79,5.64-16.14,0-6-1.13-10.71-3.36-14.12-3.09-4.67-8.55-7-16.22-7" transform="translate(-25 -27.26)"/>
        <path class="cls-3" d="M467.79,281.22V312l-19.58-30.73h-8.39v40.94H447V291.5l19.79,30.66H475V281.22Z" transform="translate(-25 -27.26)"/>
      </g>
    </g>
  </g>
</svg>
