<svg xmlns="http://www.w3.org/2000/svg" id="Layer_1" data-name="Layer 1" viewBox="0 0 450 42.11"><defs><clipPath id="clip-path" transform="translate(-25 -18.94)"><path d="M0 0h500v80H0z" style="fill:none"/></clipPath><style>.cls-3{fill:#334669}.cls-4{fill:#57a1bf}</style></defs><g id="layer_1-2" data-name="layer 1" style="clip-path:url(#clip-path)"><path d="M24.69 17.39c-1 .73-3.15 1.11-6.4 1.11H7.38V6.68h10.91c4.07 0 5.64.44 6.24.81 1.55.94 2.3 2.61 2.3 5.1a5.56 5.56 0 0 1-2.14 4.8M34 39.24c-.08-.46-.2-1.92-.35-4.33-.27-3.86-.89-6.58-1.92-8.3a10.93 10.93 0 0 0-4.57-3.89 12.62 12.62 0 0 0 3.91-2.14 10.56 10.56 0 0 0 3.51-8.43 12 12 0 0 0-1.22-5.36 10.48 10.48 0 0 0-3.41-4C27.75 1.3 24.06.57 18.66.57H0v40.96h7.38V24.59h5.88c4.62 0 7.89.77 9.74 2.3s3 4.35 3.33 8.42c.24 2.61.39 4.09.45 4.52a4.17 4.17 0 0 0 .49 1.44l.14.26h7.7l-.44-.75a5.1 5.1 0 0 1-.67-1.54M47.05 2.69a16.2 16.2 0 0 0-6.68 7.21C38.82 12.95 38 16.96 38 21.84a26.47 26.47 0 0 0 1.43 9.3c1.78 4.71 4.65 7.81 8.52 9.22a24.88 24.88 0 0 0 8.34 1.17H70v-6.09H57.5a14.65 14.65 0 0 1-6-1 8.07 8.07 0 0 1-3.57-3.38A14.37 14.37 0 0 1 46.09 24H70v-6.1H46.13a19 19 0 0 1 1.11-5.57A9 9 0 0 1 50 8.57a7.62 7.62 0 0 1 3-1.46 21.55 21.55 0 0 1 4.87-.43H70V.59H58.2c-4.72 0-8.47.71-11.15 2.1" class="cls-3"/><path d="M90.76 24.41a37.38 37.38 0 0 1-.39 6.41 5.27 5.27 0 0 1-1.3 2.83 5.75 5.75 0 0 1-2.89 1.41 30.52 30.52 0 0 1-5.89.42h-8.23v6.09h8.23a45 45 0 0 0 7.91-.51 13.11 13.11 0 0 0 4.9-2 10.53 10.53 0 0 0 4.32-5.84 36.73 36.73 0 0 0 .72-8.76V.59h-7.38ZM112 2.69a16.14 16.14 0 0 0-6.68 7.21c-1.55 3.05-2.34 7.06-2.34 11.94a26.22 26.22 0 0 0 1.44 9.3c1.78 4.71 4.65 7.81 8.52 9.22a24.77 24.77 0 0 0 8.33 1.17h13.64v-6.09h-12.52a14.68 14.68 0 0 1-6-1 8.13 8.13 0 0 1-3.57-3.38 14.47 14.47 0 0 1-1.82-7.11h23.88v-6.1H111a19 19 0 0 1 1.12-5.57 8.89 8.89 0 0 1 2.72-3.71 7.66 7.66 0 0 1 3-1.46 21.45 21.45 0 0 1 4.86-.43h12.15V.59h-11.76c-4.71 0-8.47.71-11.14 2.1M166.9 31.32 147.31.59h-8.38v40.94h7.2V10.87l19.8 30.66h8.17V.59h-7.2ZM188.41 2.69a16.14 16.14 0 0 0-6.68 7.21c-1.55 3.05-2.34 7.06-2.34 11.94a26.22 26.22 0 0 0 1.44 9.3c1.78 4.71 4.65 7.81 8.52 9.22a24.77 24.77 0 0 0 8.33 1.17h13.64v-6.09h-12.47a14.68 14.68 0 0 1-6-1 8.13 8.13 0 0 1-3.57-3.38 14.47 14.47 0 0 1-1.84-7.06h23.88v-6.1h-23.84a19 19 0 0 1 1.12-5.57 8.89 8.89 0 0 1 2.72-3.71 7.66 7.66 0 0 1 3-1.46 21.45 21.45 0 0 1 4.86-.43h12.15V.59h-11.78c-4.71 0-8.47.71-11.14 2.1M223.78 6.68h10.9c4.07 0 5.64.44 6.24.81 1.55.94 2.3 2.61 2.3 5.1a5.58 5.58 0 0 1-2.13 4.8c-1 .73-3.16 1.1-6.41 1.1h-10.9Zm26.66 32.56c-.09-.46-.21-1.92-.36-4.33-.26-3.86-.89-6.58-1.92-8.3a10.87 10.87 0 0 0-4.57-3.89 12.51 12.51 0 0 0 3.91-2.14 10.56 10.56 0 0 0 3.5-8.43 12 12 0 0 0-1.22-5.36 10.31 10.31 0 0 0-3.41-4c-2.2-1.49-5.89-2.22-11.29-2.22h-18.7v40.96h7.39V24.59h5.87c4.62 0 7.9.77 9.75 2.3s3 4.35 3.33 8.42c.23 2.62.38 4.09.44 4.52a4.39 4.39 0 0 0 .49 1.44l.15.26h7.69l-.43-.75a4.62 4.62 0 0 1-.63-1.54M280.37 24.99h-13.5l6.92-17.72ZM278.44.59h-9.07l-16.95 40.94h7.88l4.24-10.47h18.25l4.07 10.44h7.87L278.57.91ZM326.36 19.5a10.47 10.47 0 0 0-4.36-1.79 47.17 47.17 0 0 0-7.73-.47h-2.4c-3 0-5.17-.41-6.42-1.21a4.2 4.2 0 0 1-1.77-3.85c0-2.1.67-3.55 2.05-4.43a6.15 6.15 0 0 1 2.23-.82 23.69 23.69 0 0 1 3.91-.25h16.94V.59h-16.94a25.63 25.63 0 0 0-8.77 1.19 10.64 10.64 0 0 0-5.17 4.28 12.52 12.52 0 0 0-2 7.07c0 4 1.51 7 4.5 8.94 2.09 1.33 5.41 2 10.16 2h3.34a23.33 23.33 0 0 1 6 .48c2.07.67 3.07 2.4 3.07 5.28 0 2.27-.78 3.82-2.38 4.75a11.75 11.75 0 0 1-5.45.93h-17.85v6.09h16.95a48.42 48.42 0 0 0 6.58-.33 13 13 0 0 0 4.06-1.25c3.85-2 5.8-5.49 5.8-10.39a14.7 14.7 0 0 0-1.13-5.82 10.58 10.58 0 0 0-3.22-4.24M363 .59l-11.32 18.47L340 .59h-8.62l16.41 24.53v16.41h7.38V25.12L371.62.59ZM400.27 30.49c-1.72 3.72-5.16 5.53-10.52 5.53-4.66 0-7.95-1.39-9.79-4.14-1.6-2.38-2.4-6-2.4-10.86 0-4 .55-7.2 1.64-9.44 1.8-3.69 5.28-5.52 10.64-5.52 4.61 0 7.89 1.55 9.76 4.5 1.38 2.21 2.08 5.82 2.08 10.74 0 4-.47 7.1-1.41 9.15M389.9 0a26 26 0 0 0-9.13 1.56 16.16 16.16 0 0 0-6.45 4.58 17.71 17.71 0 0 0-3.32 6.49 29.5 29.5 0 0 0-1.21 8.5 31.24 31.24 0 0 0 1.15 8.49 18.09 18.09 0 0 0 3.06 6.49c3.21 4 8.36 6 15.31 6 6.07 0 11-1.62 14.53-4.81 3.74-3.37 5.64-8.8 5.64-16.15 0-6-1.13-10.71-3.36-14.11-3.09-4.68-8.55-7-16.22-7M442.79.59v30.73L423.21.59h-8.39v40.94H422V10.87l19.79 30.66H450V.59Z" class="cls-4"/></g></svg>